<mxfile modified="2022-05-05T02:59:13.567Z" host="app.diagrams.net" agent="5.0 (Windows NT 10.0; Win64; x64) AppleWebKit/537.36 (KHTML, like Gecko) Chrome/100.0.4896.127 Safari/537.36 Edg/100.0.1185.50" etag="ZCH06FAB4uQoDJ9Ng9mn" compressed="false" version="17.5.0" type="google">
  <diagram name="Development/Delivery Pipeline/Semantic Version Numbering" id="nZMhJSpzTwhjXosp7zSw">
    <mxGraphModel grid="1" page="1" gridSize="10" guides="1" tooltips="1" connect="1" arrows="1" fold="1" pageScale="1" pageWidth="827" pageHeight="1169" math="0" shadow="0">
      <root>
        <mxCell id="BdFhdWTU9qY8VHg69Mt0-0" />
        <mxCell id="BdFhdWTU9qY8VHg69Mt0-1" value="Diagram-Boxes" style="" parent="BdFhdWTU9qY8VHg69Mt0-0" />
        <mxCell id="BdFhdWTU9qY8VHg69Mt0-24" value="0" style="rounded=0;whiteSpace=wrap;html=1;strokeColor=#000000;fillColor=none;fontSize=12;fontFamily=Courier New;" vertex="1" parent="BdFhdWTU9qY8VHg69Mt0-1">
          <mxGeometry x="120" y="300" width="80" height="20" as="geometry" />
        </mxCell>
        <mxCell id="BdFhdWTU9qY8VHg69Mt0-25" value="3" style="rounded=0;whiteSpace=wrap;html=1;strokeColor=#000000;fillColor=none;fontSize=12;fontFamily=Courier New;" vertex="1" parent="BdFhdWTU9qY8VHg69Mt0-1">
          <mxGeometry x="220" y="300" width="80" height="20" as="geometry" />
        </mxCell>
        <mxCell id="BdFhdWTU9qY8VHg69Mt0-26" value="1" style="rounded=0;whiteSpace=wrap;html=1;strokeColor=#000000;fillColor=none;fontSize=12;fontFamily=Courier New;" vertex="1" parent="BdFhdWTU9qY8VHg69Mt0-1">
          <mxGeometry x="320" y="300" width="80" height="20" as="geometry" />
        </mxCell>
        <mxCell id="BdFhdWTU9qY8VHg69Mt0-27" value="." style="text;html=1;strokeColor=none;fillColor=none;align=center;verticalAlign=middle;whiteSpace=wrap;rounded=0;fontSize=12;fontFamily=Courier New;" vertex="1" parent="BdFhdWTU9qY8VHg69Mt0-1">
          <mxGeometry x="200" y="300" width="20" height="20" as="geometry" />
        </mxCell>
        <mxCell id="BdFhdWTU9qY8VHg69Mt0-28" value="." style="text;html=1;strokeColor=none;fillColor=none;align=center;verticalAlign=middle;whiteSpace=wrap;rounded=0;fontSize=12;fontFamily=Courier New;" vertex="1" parent="BdFhdWTU9qY8VHg69Mt0-1">
          <mxGeometry x="300" y="300" width="20" height="20" as="geometry" />
        </mxCell>
        <mxCell id="BdFhdWTU9qY8VHg69Mt0-29" value="MAJOR" style="rounded=0;whiteSpace=wrap;html=1;strokeColor=#666666;fillColor=#f5f5f5;fontSize=12;fontColor=#333333;fontFamily=Courier New;" vertex="1" parent="BdFhdWTU9qY8VHg69Mt0-1">
          <mxGeometry x="120" y="250" width="80" height="40" as="geometry" />
        </mxCell>
        <mxCell id="BdFhdWTU9qY8VHg69Mt0-30" value="MINOR" style="rounded=0;whiteSpace=wrap;html=1;strokeColor=#666666;fillColor=#f5f5f5;fontSize=12;fontColor=#333333;fontFamily=Courier New;" vertex="1" parent="BdFhdWTU9qY8VHg69Mt0-1">
          <mxGeometry x="220" y="250" width="80" height="40" as="geometry" />
        </mxCell>
        <mxCell id="BdFhdWTU9qY8VHg69Mt0-31" value="PATCH" style="rounded=0;whiteSpace=wrap;html=1;strokeColor=#666666;fillColor=#f5f5f5;fontSize=12;fontColor=#333333;fontFamily=Courier New;" vertex="1" parent="BdFhdWTU9qY8VHg69Mt0-1">
          <mxGeometry x="320" y="250" width="80" height="40" as="geometry" />
        </mxCell>
        <mxCell id="BdFhdWTU9qY8VHg69Mt0-32" value="&lt;font style=&quot;font-size: 12px ; line-height: 80%&quot;&gt;PRERELEASE&lt;br&gt;TAG&lt;/font&gt;" style="rounded=0;whiteSpace=wrap;html=1;strokeColor=#666666;fillColor=#f5f5f5;fontSize=12;fontColor=#333333;fontFamily=Courier New;" vertex="1" parent="BdFhdWTU9qY8VHg69Mt0-1">
          <mxGeometry x="420" y="250" width="80" height="40" as="geometry" />
        </mxCell>
        <mxCell id="BdFhdWTU9qY8VHg69Mt0-33" value="-" style="text;html=1;strokeColor=none;fillColor=none;align=center;verticalAlign=middle;whiteSpace=wrap;rounded=0;fontSize=12;fontFamily=Courier New;" vertex="1" parent="BdFhdWTU9qY8VHg69Mt0-1">
          <mxGeometry x="400" y="300" width="20" height="20" as="geometry" />
        </mxCell>
        <mxCell id="BdFhdWTU9qY8VHg69Mt0-34" value="METADATA" style="rounded=0;whiteSpace=wrap;html=1;strokeColor=#666666;fillColor=#f5f5f5;fontSize=12;fontColor=#333333;fontFamily=Courier New;" vertex="1" parent="BdFhdWTU9qY8VHg69Mt0-1">
          <mxGeometry x="520" y="250" width="160" height="40" as="geometry" />
        </mxCell>
        <mxCell id="BdFhdWTU9qY8VHg69Mt0-35" value="+" style="text;html=1;strokeColor=none;fillColor=none;align=center;verticalAlign=middle;whiteSpace=wrap;rounded=0;fontSize=12;fontFamily=Courier New;" vertex="1" parent="BdFhdWTU9qY8VHg69Mt0-1">
          <mxGeometry x="500" y="300" width="20" height="20" as="geometry" />
        </mxCell>
        <mxCell id="BdFhdWTU9qY8VHg69Mt0-36" value="alpha.3" style="rounded=0;whiteSpace=wrap;html=1;strokeColor=#000000;fillColor=none;fontSize=12;fontFamily=Courier New;" vertex="1" parent="BdFhdWTU9qY8VHg69Mt0-1">
          <mxGeometry x="420" y="300" width="80" height="20" as="geometry" />
        </mxCell>
        <mxCell id="BdFhdWTU9qY8VHg69Mt0-37" value="201901031103.Sprint17" style="rounded=0;whiteSpace=wrap;html=1;strokeColor=#000000;fillColor=none;fontSize=12;fontFamily=Courier New;" vertex="1" parent="BdFhdWTU9qY8VHg69Mt0-1">
          <mxGeometry x="520" y="300" width="160" height="20" as="geometry" />
        </mxCell>
        <mxCell id="BdFhdWTU9qY8VHg69Mt0-38" value="Breaking Change" style="text;html=1;strokeColor=none;fillColor=none;align=left;verticalAlign=middle;whiteSpace=wrap;rounded=0;fontSize=12;" vertex="1" parent="BdFhdWTU9qY8VHg69Mt0-1">
          <mxGeometry x="120" y="340" width="480" height="20" as="geometry" />
        </mxCell>
        <mxCell id="BdFhdWTU9qY8VHg69Mt0-39" value="Backward compatible feature addition." style="text;html=1;strokeColor=none;fillColor=none;align=left;verticalAlign=middle;whiteSpace=wrap;rounded=0;fontSize=12;" vertex="1" parent="BdFhdWTU9qY8VHg69Mt0-1">
          <mxGeometry x="220" y="360" width="380" height="20" as="geometry" />
        </mxCell>
        <mxCell id="BdFhdWTU9qY8VHg69Mt0-40" value="Backward compatible bug fix" style="text;html=1;strokeColor=none;fillColor=none;align=left;verticalAlign=middle;whiteSpace=wrap;rounded=0;fontSize=12;" vertex="1" parent="BdFhdWTU9qY8VHg69Mt0-1">
          <mxGeometry x="320" y="380" width="280" height="20" as="geometry" />
        </mxCell>
        <mxCell id="BdFhdWTU9qY8VHg69Mt0-41" value="Pre-release identifier" style="text;html=1;strokeColor=none;fillColor=none;align=left;verticalAlign=middle;whiteSpace=wrap;rounded=0;fontSize=12;" vertex="1" parent="BdFhdWTU9qY8VHg69Mt0-1">
          <mxGeometry x="420" y="400" width="180" height="20" as="geometry" />
        </mxCell>
        <mxCell id="BdFhdWTU9qY8VHg69Mt0-42" value="Date, Notes" style="text;html=1;strokeColor=none;fillColor=none;align=left;verticalAlign=middle;whiteSpace=wrap;rounded=0;fontSize=12;" vertex="1" parent="BdFhdWTU9qY8VHg69Mt0-1">
          <mxGeometry x="520" y="420" width="120" height="20" as="geometry" />
        </mxCell>
        <mxCell id="BdFhdWTU9qY8VHg69Mt0-43" value="Metadata can be used to encode the compile date (eg: + 201901031103) generally in first place (metadata values are separated by &#39;.&#39;).&lt;br&gt;&lt;br&gt;Do NOT use Major, Minor, Patch, PreRelease Tag values to encode project tracking/release information (eg: GoLive is NOT 1.0.0....). &lt;br&gt;Metadata can be used for that kind of stuff: +{compiledate}.golive&amp;nbsp;&lt;br&gt;" style="shape=note;whiteSpace=wrap;html=1;size=14;verticalAlign=top;align=left;spacingTop=-6;strokeColor=#000000;fillColor=none;fontSize=12;" vertex="1" parent="BdFhdWTU9qY8VHg69Mt0-1">
          <mxGeometry x="120" y="100" width="560" height="90" as="geometry" />
        </mxCell>
        <UserObject label="SEMANTIC VERSIONING" link="https://semver.org/" id="BdFhdWTU9qY8VHg69Mt0-44">
          <mxCell style="rounded=0;whiteSpace=wrap;html=1;strokeColor=#666666;fillColor=#f5f5f5;fontSize=12;fontColor=#333333;" vertex="1" parent="BdFhdWTU9qY8VHg69Mt0-1">
            <mxGeometry x="120" y="200" width="560" height="40" as="geometry" />
          </mxCell>
        </UserObject>
        <mxCell id="BdFhdWTU9qY8VHg69Mt0-16" value="Diagram-Grid" style="" parent="BdFhdWTU9qY8VHg69Mt0-0" />
        <mxCell id="BdFhdWTU9qY8VHg69Mt0-17" value="Title/Diagram" parent="BdFhdWTU9qY8VHg69Mt0-0" />
        <mxCell id="BdFhdWTU9qY8VHg69Mt0-18" value="&lt;font style=&quot;font-size: 12px&quot;&gt;&lt;span style=&quot;font-size: 12px&quot;&gt;Diagram: Base&amp;nbsp;&lt;/span&gt;System&amp;nbsp;&lt;span style=&quot;font-size: 12px&quot;&gt;Logical Module -&amp;nbsp;&lt;/span&gt;Development - Deployment Pipeline - Semantic Version Numbers&lt;/font&gt;" style="text;strokeColor=none;fillColor=none;html=1;fontSize=12;fontStyle=2;verticalAlign=middle;align=left;shadow=0;glass=0;comic=0;opacity=30;fontColor=#808080;" vertex="1" parent="BdFhdWTU9qY8VHg69Mt0-17">
          <mxGeometry x="120" y="460" width="560" height="20" as="geometry" />
        </mxCell>
        <mxCell id="BdFhdWTU9qY8VHg69Mt0-19" value="Title/Page" style="" visible="0" parent="BdFhdWTU9qY8VHg69Mt0-0" />
        <mxCell id="BdFhdWTU9qY8VHg69Mt0-20" value="" style="group;fontSize=12;" connectable="0" vertex="1" parent="BdFhdWTU9qY8VHg69Mt0-19">
          <mxGeometry x="120" y="120" width="560" height="45" as="geometry" />
        </mxCell>
        <mxCell id="BdFhdWTU9qY8VHg69Mt0-21" value="&lt;font style=&quot;font-size: 12px;&quot;&gt;&lt;span style=&quot;font-size: 12px&quot;&gt;Base Logical Module -&amp;nbsp;&lt;/span&gt;System Context - Indicative Deployment Epics&lt;/font&gt;" style="text;strokeColor=none;fillColor=none;html=1;fontSize=12;fontStyle=1;verticalAlign=middle;align=left;shadow=0;glass=0;comic=0;opacity=30;fontColor=#808080;" vertex="1" parent="BdFhdWTU9qY8VHg69Mt0-20">
          <mxGeometry width="560" height="40" as="geometry" />
        </mxCell>
        <mxCell id="BdFhdWTU9qY8VHg69Mt0-22" value="" style="line;strokeWidth=2;html=1;shadow=0;glass=0;comic=0;fillColor=none;fontSize=10;fontColor=#CCCCCC;labelBackgroundColor=none;strokeColor=#CCCCCC;" vertex="1" parent="BdFhdWTU9qY8VHg69Mt0-20">
          <mxGeometry y="35" width="560" height="10" as="geometry" />
        </mxCell>
        <mxCell id="BdFhdWTU9qY8VHg69Mt0-23" value="About" parent="BdFhdWTU9qY8VHg69Mt0-0" />
      </root>
    </mxGraphModel>
  </diagram>
</mxfile>
